<svg width="99" height="21" viewBox="0 0 99 21" fill="none" xmlns="http://www.w3.org/2000/svg">
<path d="M0.644 12.872V11.668L5.348 4.92H7.28V11.486H8.582V12.872H7.28V15H5.712V12.872H0.644ZM5.782 6.544L2.478 11.486H5.782V6.544ZM10.7585 15.098C10.4691 15.098 10.2265 15 10.0305 14.804C9.83445 14.608 9.73645 14.3653 9.73645 14.076C9.73645 13.7867 9.83445 13.544 10.0305 13.348C10.2265 13.152 10.4691 13.054 10.7585 13.054C11.0385 13.054 11.2765 13.152 11.4725 13.348C11.6685 13.544 11.7665 13.7867 11.7665 14.076C11.7665 14.3653 11.6685 14.608 11.4725 14.804C11.2765 15 11.0385 15.098 10.7585 15.098ZM13.0854 12.872V11.668L17.7894 4.92H19.7214V11.486H21.0234V12.872H19.7214V15H18.1534V12.872H13.0854ZM18.2234 6.544L14.9194 11.486H18.2234V6.544Z" fill="#E3AF5B"/>
<path d="M31.8684 13.3938L34.7145 15.1152C35.2357 15.4307 35.8735 14.9643 35.7363 14.3745L34.982 11.1375L37.4989 8.95666C37.9584 8.55889 37.7115 7.8045 37.108 7.7565L33.7955 7.47532L32.4993 4.41663C32.2662 3.86112 31.4706 3.86112 31.2375 4.41663L29.9413 7.46846L26.6289 7.74964C26.0253 7.79765 25.7785 8.55203 26.2379 8.9498L28.7548 11.1307L28.0005 14.3677C27.8633 14.9574 28.5011 15.4238 29.0223 15.1083L31.8684 13.3938Z" fill="#E3AF5B"/>
<path d="M46.956 13.3938L49.8021 15.1152C50.3234 15.4307 50.9611 14.9643 50.824 14.3745L50.0696 11.1375L52.5865 8.95666C53.046 8.55889 52.7991 7.8045 52.1956 7.7565L48.8832 7.47532L47.587 4.41663C47.3538 3.86112 46.5583 3.86112 46.3251 4.41663L45.0289 7.46846L41.7165 7.74964C41.113 7.79765 40.8661 8.55203 41.3256 8.9498L43.8425 11.1307L43.0881 14.3677C42.9509 14.9574 43.5887 15.4238 44.11 15.1083L46.956 13.3938Z" fill="#E3AF5B"/>
<path d="M62.0437 13.3938L64.8898 15.1152C65.411 15.4307 66.0488 14.9643 65.9116 14.3745L65.1573 11.1375L67.6742 8.95666C68.1336 8.55889 67.8868 7.8045 67.2832 7.7565L63.9708 7.47532L62.6746 4.41663C62.4415 3.86112 61.6459 3.86112 61.4128 4.41663L60.1166 7.46846L56.8041 7.74964C56.2006 7.79765 55.9537 8.55203 56.4132 8.9498L58.9301 11.1307L58.1758 14.3677C58.0386 14.9574 58.6764 15.4238 59.1976 15.1083L62.0437 13.3938Z" fill="#E3AF5B"/>
<path d="M77.1316 13.3938L79.9777 15.1152C80.4989 15.4307 81.1367 14.9643 80.9995 14.3745L80.2451 11.1375L82.762 8.95666C83.2215 8.55889 82.9746 7.8045 82.3711 7.7565L79.0587 7.47532L77.7625 4.41663C77.5294 3.86112 76.7338 3.86112 76.5006 4.41663L75.2045 7.46846L71.892 7.74964C71.2885 7.79765 71.0416 8.55203 71.5011 8.9498L74.018 11.1307L73.2636 14.3677C73.1265 14.9574 73.7643 15.4238 74.2855 15.1083L77.1316 13.3938Z" fill="#E3AF5B"/>
<path fill-rule="evenodd" clip-rule="evenodd" d="M92.6301 4.67258C92.5659 4.56243 92.474 4.47103 92.3634 4.4075C92.2529 4.34398 92.1276 4.31055 92.0001 4.31055C91.8726 4.31055 91.7473 4.34398 91.6368 4.4075C91.5263 4.47103 91.4343 4.56243 91.3701 4.67258L89.7403 7.47083L86.5734 8.15742C86.4488 8.18448 86.3335 8.24372 86.239 8.32923C86.1445 8.41474 86.074 8.52352 86.0347 8.64475C85.9953 8.76597 85.9884 8.8954 86.0147 9.02012C86.0409 9.14484 86.0994 9.26051 86.1843 9.35558L88.3426 11.7712L88.0159 14.9941C88.0031 15.121 88.0237 15.2491 88.0758 15.3655C88.1279 15.4819 88.2096 15.5827 88.3128 15.6577C88.416 15.7326 88.537 15.7792 88.6639 15.7928C88.7907 15.8063 88.9189 15.7864 89.0356 15.7349L92.0001 14.4283L94.9646 15.7349C95.0813 15.7864 95.2095 15.8063 95.3363 15.7928C95.4632 15.7792 95.5842 15.7326 95.6874 15.6577C95.7906 15.5827 95.8724 15.4819 95.9244 15.3655C95.9765 15.2491 95.9972 15.121 95.9843 14.9941L95.6576 11.7712L97.8159 9.35617C97.901 9.2611 97.9596 9.14539 97.9859 9.02059C98.0122 8.89579 98.0054 8.76626 97.966 8.64494C97.9266 8.52362 97.8561 8.41476 97.7615 8.32921C97.6669 8.24366 97.5515 8.18443 97.4269 8.15742L94.2605 7.47142L92.6301 4.67258ZM91.5 13C91.4999 12.7787 91.5 13 92.5 13.5L94.7476 14.3647L94.4775 11.6971C94.4673 11.5963 94.4783 11.4945 94.5096 11.3982C94.5409 11.3019 94.592 11.2132 94.6595 11.1377L96.4457 9.13858L93.8254 8.571C93.7264 8.54964 93.6329 8.5079 93.551 8.44845C93.469 8.38899 93.4004 8.31312 93.3494 8.22567L91.5 5.5V13Z" fill="#E3AF5B"/>
</svg>
