<svg width="98" height="21" viewBox="0 0 98 21" fill="none" xmlns="http://www.w3.org/2000/svg">
<path d="M0.644 12.872V11.668L5.348 4.92H7.28V11.486H8.582V12.872H7.28V15H5.712V12.872H0.644ZM5.782 6.544L2.478 11.486H5.782V6.544ZM10.7585 15.098C10.4691 15.098 10.2265 15 10.0305 14.804C9.83445 14.608 9.73645 14.3653 9.73645 14.076C9.73645 13.7867 9.83445 13.544 10.0305 13.348C10.2265 13.152 10.4691 13.054 10.7585 13.054C11.0385 13.054 11.2765 13.152 11.4725 13.348C11.6685 13.544 11.7665 13.7867 11.7665 14.076C11.7665 14.3653 11.6685 14.608 11.4725 14.804C11.2765 15 11.0385 15.098 10.7585 15.098ZM19.8614 6.166H15.1714V8.952C15.3674 8.69067 15.6567 8.47133 16.0394 8.294C16.4314 8.11667 16.8467 8.028 17.2854 8.028C18.0694 8.028 18.7041 8.196 19.1894 8.532C19.6841 8.868 20.0341 9.29267 20.2394 9.806C20.4541 10.3193 20.5614 10.8607 20.5614 11.43C20.5614 12.1207 20.4261 12.7367 20.1554 13.278C19.8941 13.81 19.4974 14.23 18.9654 14.538C18.4427 14.846 17.7987 15 17.0334 15C16.0161 15 15.1994 14.748 14.5834 14.244C13.9674 13.74 13.5987 13.0727 13.4774 12.242H15.0314C15.1341 12.6807 15.3627 13.0307 15.7174 13.292C16.0721 13.544 16.5154 13.67 17.0474 13.67C17.7101 13.67 18.2047 13.4693 18.5314 13.068C18.8674 12.6667 19.0354 12.1347 19.0354 11.472C19.0354 10.8 18.8674 10.2867 18.5314 9.932C18.1954 9.568 17.7007 9.386 17.0474 9.386C16.5901 9.386 16.2027 9.50267 15.8854 9.736C15.5774 9.96 15.3534 10.268 15.2134 10.66H13.7014V4.766H19.8614V6.166Z" fill="#E3AF5B"/>
<path d="M30.8684 12.3938L33.7145 14.1152C34.2357 14.4307 34.8735 13.9643 34.7363 13.3745L33.982 10.1375L36.4989 7.95666C36.9584 7.55889 36.7115 6.8045 36.108 6.7565L32.7955 6.47532L31.4993 3.41663C31.2662 2.86112 30.4706 2.86112 30.2375 3.41663L28.9413 6.46846L25.6289 6.74964C25.0253 6.79765 24.7785 7.55203 25.2379 7.9498L27.7548 10.1307L27.0005 13.3677C26.8633 13.9574 27.5011 14.4238 28.0223 14.1083L30.8684 12.3938Z" fill="#E3AF5B"/>
<path d="M45.956 12.3938L48.8021 14.1152C49.3234 14.4307 49.9611 13.9643 49.824 13.3745L49.0696 10.1375L51.5865 7.95666C52.046 7.55889 51.7991 6.8045 51.1956 6.7565L47.8832 6.47532L46.587 3.41663C46.3538 2.86112 45.5583 2.86112 45.3251 3.41663L44.0289 6.46846L40.7165 6.74964C40.113 6.79765 39.8661 7.55203 40.3256 7.9498L42.8425 10.1307L42.0881 13.3677C41.9509 13.9574 42.5887 14.4238 43.11 14.1083L45.956 12.3938Z" fill="#E3AF5B"/>
<path d="M61.0437 12.3938L63.8898 14.1152C64.411 14.4307 65.0488 13.9643 64.9116 13.3745L64.1573 10.1375L66.6742 7.95666C67.1336 7.55889 66.8868 6.8045 66.2832 6.7565L62.9708 6.47532L61.6746 3.41663C61.4415 2.86112 60.6459 2.86112 60.4128 3.41663L59.1166 6.46846L55.8041 6.74964C55.2006 6.79765 54.9537 7.55203 55.4132 7.9498L57.9301 10.1307L57.1758 13.3677C57.0386 13.9574 57.6764 14.4238 58.1976 14.1083L61.0437 12.3938Z" fill="#E3AF5B"/>
<path d="M76.1316 12.3938L78.9777 14.1152C79.4989 14.4307 80.1367 13.9643 79.9995 13.3745L79.2451 10.1375L81.762 7.95666C82.2215 7.55889 81.9746 6.8045 81.3711 6.7565L78.0587 6.47532L76.7625 3.41663C76.5294 2.86112 75.7338 2.86112 75.5006 3.41663L74.2045 6.46846L70.892 6.74964C70.2885 6.79765 70.0416 7.55203 70.5011 7.9498L73.018 10.1307L72.2636 13.3677C72.1265 13.9574 72.7643 14.4238 73.2855 14.1083L76.1316 12.3938Z" fill="#E3AF5B"/>
<path fill-rule="evenodd" clip-rule="evenodd" d="M91.6301 3.67258C91.5659 3.56243 91.474 3.47103 91.3634 3.4075C91.2529 3.34398 91.1276 3.31055 91.0001 3.31055C90.8726 3.31055 90.7473 3.34398 90.6368 3.4075C90.5263 3.47103 90.4343 3.56243 90.3701 3.67258L88.7403 6.47083L85.5734 7.15742C85.4488 7.18448 85.3335 7.24372 85.239 7.32923C85.1445 7.41474 85.074 7.52352 85.0347 7.64475C84.9953 7.76597 84.9884 7.8954 85.0147 8.02012C85.0409 8.14484 85.0994 8.26051 85.1843 8.35558L87.3426 10.7712L87.0159 13.9941C87.0031 14.121 87.0237 14.2491 87.0758 14.3655C87.1279 14.4819 87.2096 14.5827 87.3128 14.6577C87.416 14.7326 87.537 14.7792 87.6639 14.7928C87.7907 14.8063 87.9189 14.7864 88.0356 14.7349L91.0001 13.4283L93.9646 14.7349C94.0813 14.7864 94.2095 14.8063 94.3363 14.7928C94.4632 14.7792 94.5842 14.7326 94.6874 14.6577C94.7906 14.5827 94.8723 14.4819 94.9244 14.3655C94.9765 14.2491 94.9972 14.121 94.9843 13.9941L94.6576 10.7712L96.8159 8.35617C96.901 8.2611 96.9596 8.14539 96.9859 8.02059C97.0122 7.89579 97.0054 7.76626 96.966 7.64494C96.9266 7.52362 96.8561 7.41476 96.7615 7.32921C96.6669 7.24366 96.5515 7.18443 96.4269 7.15742L93.2605 6.47142L91.6301 3.67258ZM91.0001 12.2213C91.1004 12.2213 91.2008 12.2418 91.2941 12.2832L93.7476 13.3647L93.4775 10.6971C93.4673 10.5963 93.4783 10.4945 93.5096 10.3982C93.5409 10.3019 93.592 10.2132 93.6595 10.1377L95.4457 8.13858L92.8254 7.571C92.7264 7.54964 92.6329 7.5079 92.551 7.44845C92.469 7.38899 92.4004 7.31312 92.3494 7.22567L91.0001 4.90867V12.2213Z" fill="#E3AF5B"/>
</svg>
