<svg width="123" height="122" viewBox="0 0 123 122" fill="none" xmlns="http://www.w3.org/2000/svg">
<rect x="0.998047" width="122" height="122" rx="16" fill="#E3AF5B"/>
<path fill-rule="evenodd" clip-rule="evenodd" d="M75.998 52C75.998 39.2975 65.7006 29 52.998 29C40.2955 29 29.998 39.2975 29.998 52C29.998 64.7025 40.2955 75 52.998 75C65.7006 75 75.998 64.7025 75.998 52ZM36.998 52C36.998 43.1634 44.1615 36 52.998 36C61.8305 36.0099 68.9881 43.1676 68.998 52C68.998 60.8366 61.8346 68 52.998 68C44.1615 68 36.998 60.8366 36.998 52Z" fill="white"/>
<path fill-rule="evenodd" clip-rule="evenodd" d="M93.998 70C93.998 57.2975 83.7006 47 70.998 47C58.2955 47 47.998 57.2975 47.998 70C47.998 82.7025 58.2955 93 70.998 93C83.7006 93 93.998 82.7025 93.998 70ZM54.998 70C54.998 61.1634 62.1615 54 70.998 54C79.8305 54.0099 86.9881 61.1676 86.998 70C86.998 78.8366 79.8346 86 70.998 86C62.1615 86 54.998 78.8366 54.998 70Z" fill="white"/>
</svg>
