<svg width="123" height="122" viewBox="0 0 123 122" fill="none" xmlns="http://www.w3.org/2000/svg">
<rect x="0.998047" width="122" height="122" rx="16" fill="#E3AF5B"/>
<path fill-rule="evenodd" clip-rule="evenodd" d="M45.281 43.9539C44.5749 41.3911 42.4272 39.4836 39.799 39.0849L55.843 29.7969C55.6579 30.4285 55.5617 31.0827 55.557 31.7409C55.5591 33.6301 56.3527 35.432 57.745 36.7089L45.285 43.9529L45.281 43.9539ZM90.791 66.7609C89.514 65.3457 87.6972 64.5379 85.791 64.5379C85.1131 64.5376 84.439 64.6387 83.791 64.8379V51.6379C84.4391 51.8365 85.1132 51.9376 85.791 51.9379C87.6975 51.9393 89.5149 51.1313 90.791 49.7149V66.7539V66.7609ZM37.908 77.9439L55.569 88.1709L55.571 88.1699C55.56 88.0349 55.56 87.9089 55.56 87.7959C55.5593 86.6192 55.8676 85.463 56.454 84.4429C57.0233 83.4551 57.8326 82.6269 58.807 82.0349L44.954 73.9819C43.8777 76.4236 41.4615 77.9998 38.793 78.0009C38.4971 78 38.2016 77.9809 37.908 77.9439ZM69.029 87.8009C69.029 87.9129 69.025 88.0379 69.018 88.1709L69.021 88.1729L86.678 77.9499C86.3849 77.9881 86.0896 78.0071 85.794 78.0069C83.1252 78.0062 80.7085 76.4299 79.632 73.9879L65.781 82.0399C66.7558 82.6317 67.5654 83.46 68.135 84.4479C68.721 85.4682 69.0292 86.6243 69.029 87.8009ZM33.791 50.2509V66.7539C35.0701 65.3421 36.886 64.5362 38.791 64.5349C39.4689 64.535 40.1429 64.6361 40.791 64.8349V52.1689C40.1437 52.3717 39.4693 52.4745 38.791 52.4739C36.8852 52.4722 35.069 51.6647 33.791 50.2509ZM66.834 36.7099L79.181 43.8889L79.183 43.8929C79.6941 41.3661 81.5971 39.3495 84.09 38.6929L68.733 29.7979C68.9229 30.4284 69.0193 31.0834 69.019 31.7419C69.02 33.6311 68.2272 35.4338 66.834 36.7099Z" fill="white"/>
<path fill-rule="evenodd" clip-rule="evenodd" d="M28.9912 45.7902C28.9912 50.6503 32.9311 54.5902 37.7912 54.5902C42.6513 54.5902 46.5912 50.6503 46.5912 45.7902C46.5912 40.9301 42.6513 36.9902 37.7912 36.9902C32.9311 36.9902 28.9912 40.9301 28.9912 45.7902ZM34.7418 44.5368C35.2523 43.3029 36.4559 42.4982 37.7912 42.4982V42.5002C39.6106 42.5002 41.0868 43.9728 41.0912 45.7922C41.0936 47.1275 40.2912 48.3326 39.0582 48.8453C37.8253 49.358 36.4049 49.0771 35.4599 48.1338C34.5149 47.1905 34.2314 45.7706 34.7418 44.5368Z" fill="white"/>
<path fill-rule="evenodd" clip-rule="evenodd" d="M77.9912 45.7902C77.9912 50.6503 81.9311 54.5902 86.7912 54.5902C91.6513 54.5902 95.5912 50.6503 95.5912 45.7902C95.5912 40.9301 91.6513 36.9902 86.7912 36.9902C81.9311 36.9902 77.9912 40.9301 77.9912 45.7902ZM83.7418 44.5368C84.2523 43.3029 85.4559 42.4982 86.7912 42.4982V42.5002C88.6106 42.5002 90.0868 43.9728 90.0912 45.7922C90.0936 47.1275 89.2912 48.3326 88.0582 48.8453C86.8253 49.358 85.4049 49.0771 84.4599 48.1338C83.5149 47.1905 83.2314 45.7706 83.7418 44.5368Z" fill="white"/>
<path fill-rule="evenodd" clip-rule="evenodd" d="M53.4912 31.7902C53.4912 36.6503 57.4311 40.5902 62.2912 40.5902C67.1513 40.5902 71.0912 36.6503 71.0912 31.7902C71.0912 26.9301 67.1513 22.9902 62.2912 22.9902C57.4311 22.9902 53.4912 26.9301 53.4912 31.7902ZM59.2418 30.5368C59.7523 29.3029 60.9559 28.4982 62.2912 28.4982V28.5002C64.1106 28.5002 65.5868 29.9728 65.5912 31.7922C65.5936 33.1275 64.7912 34.3326 63.5582 34.8453C62.3253 35.358 60.9049 35.0771 59.9599 34.1338C59.0149 33.1905 58.7314 31.7706 59.2418 30.5368Z" fill="white"/>
<path fill-rule="evenodd" clip-rule="evenodd" d="M53.4912 86.7902C53.4912 91.6503 57.4311 95.5902 62.2912 95.5902C67.1513 95.5902 71.0912 91.6503 71.0912 86.7902C71.0912 81.9301 67.1513 77.9902 62.2912 77.9902C57.4311 77.9902 53.4912 81.9301 53.4912 86.7902ZM59.2418 85.5368C59.7523 84.3029 60.9559 83.4982 62.2912 83.4982V83.5002C64.1106 83.5002 65.5868 84.9728 65.5912 86.7922C65.5936 88.1275 64.7912 89.3326 63.5582 89.8453C62.3253 90.358 60.9049 90.0771 59.9599 89.1338C59.0149 88.1905 58.7314 86.7706 59.2418 85.5368Z" fill="white"/>
<path fill-rule="evenodd" clip-rule="evenodd" d="M29.9912 71.7902C29.9912 76.6503 33.9311 80.5902 38.7912 80.5902C43.6513 80.5902 47.5912 76.6503 47.5912 71.7902C47.5912 66.9301 43.6513 62.9902 38.7912 62.9902C33.9311 62.9902 29.9912 66.9301 29.9912 71.7902ZM35.7418 70.5368C36.2523 69.3029 37.4559 68.4982 38.7912 68.4982V68.5002C40.6106 68.5002 42.0868 69.9728 42.0912 71.7922C42.0936 73.1275 41.2912 74.3326 40.0582 74.8453C38.8253 75.358 37.4049 75.0771 36.4599 74.1338C35.5149 73.1905 35.2314 71.7706 35.7418 70.5368Z" fill="white"/>
<path fill-rule="evenodd" clip-rule="evenodd" d="M78.1963 71.7297C78.1963 76.5898 82.1362 80.5297 86.9963 80.5297C91.8564 80.5297 95.7963 76.5898 95.7963 71.7297C95.7963 66.8696 91.8564 62.9297 86.9963 62.9297C82.1362 62.9297 78.1963 66.8696 78.1963 71.7297ZM83.9469 70.4762C84.4573 69.2424 85.661 68.4377 86.9963 68.4377V68.4397C88.8157 68.4397 90.2919 69.9123 90.2963 71.7317C90.2987 73.067 89.4962 74.2721 88.2633 74.7848C87.0304 75.2974 85.61 75.0166 84.665 74.0733C83.7199 73.1299 83.4365 71.7101 83.9469 70.4762Z" fill="white"/>
<path d="M69.0969 72.4215L61.0253 62.8059L57.6262 68.9562L55.4405 53.2299L70.5502 58.1075L63.7503 60.5316L71.8154 70.1395L69.0969 72.4215Z" fill="white"/>
</svg>
