<svg width="51" height="43" viewBox="0 0 51 43" fill="none" xmlns="http://www.w3.org/2000/svg">
<path fill-rule="evenodd" clip-rule="evenodd" d="M50.6718 43V0.576172H11.0222V4.87361H46.373V38.7H11.9872V22.8326H18.6139L9.8868 13.4888L0.681641 22.8326H7.68977V43H50.6718ZM37.1326 15.4689V13.0964H22.5608V15.4727H27.9771C28.8351 15.4035 29.6862 15.6718 30.3496 16.2203C30.5849 16.4486 30.7698 16.7236 30.8925 17.0277L30.9179 17.0938H22.562V19.4816H30.9535L30.895 19.6405C30.7954 19.8859 30.6572 20.1139 30.4856 20.3156L30.3508 20.4606C29.769 20.9733 29.0142 21.246 28.239 21.2234H27.9783H22.562V24.3384H26.2492C26.6979 24.318 27.1437 24.4204 27.5384 24.6347C27.8521 24.8373 28.119 25.1042 28.3216 25.4179L28.4411 25.6022L32.3355 31.4508H37.1784L33.387 25.9061C32.9814 25.2372 32.4082 24.6858 31.724 24.3066C31.4019 24.1459 31.0598 24.0288 30.7068 23.9583H30.675L30.8581 23.915C31.1682 23.8372 31.4721 23.7365 31.7672 23.6137L32.0507 23.4866C32.9424 23.0726 33.6918 22.4042 34.2045 21.5654C34.5668 20.9619 34.8026 20.291 34.8975 19.5934L34.9127 19.4663H37.1415V17.0938H34.8136L34.7652 16.8942C34.6754 16.5687 34.5474 16.2551 34.3838 15.9597L34.2567 15.7525C34.2092 15.6787 34.1596 15.6067 34.1079 15.5363L34.0532 15.4689H37.1326Z" fill="#00005B"/>
</svg>
