<svg width="123" height="122" viewBox="0 0 123 122" fill="none" xmlns="http://www.w3.org/2000/svg">
<rect x="0.998047" width="122" height="122" rx="16" fill="#E3AF5B"/>
<path fill-rule="evenodd" clip-rule="evenodd" d="M32.9183 50.039L39.1813 51.77V51.772C39.4433 50.935 39.7313 50.128 40.0433 49.372C41.32 46.2915 43.1789 43.4863 45.5183 41.11C47.8329 38.7431 50.5875 36.8511 53.6273 35.54C56.7647 34.1865 60.1464 33.4908 63.5633 33.496C66.9807 33.49 70.3628 34.1857 73.5003 35.54C73.8593 35.697 74.2113 35.858 74.5453 36.017L77.1453 30.062C76.7563 29.878 76.3793 29.707 76.0243 29.555C72.087 27.8634 67.8456 26.994 63.5603 27C59.2769 26.9937 55.0373 27.8621 51.1013 29.552C47.2864 31.1887 43.8272 33.5534 40.9173 36.514C37.9921 39.4848 35.6649 42.9901 34.0623 46.839C33.6272 47.8857 33.2453 48.9537 32.9183 50.039ZM86.6603 81.992L81.9273 77.545C84.1218 75.2385 85.8706 72.5458 87.0853 69.603C88.4192 66.3981 89.1012 62.9595 89.0913 59.488C89.1004 56.0167 88.4185 52.5782 87.0853 49.373C86.0779 46.9394 84.7066 44.6728 83.0183 42.651L87.7763 38.224C89.9833 40.8011 91.7718 43.7089 93.0763 46.841C94.7423 50.849 95.5964 55.1476 95.5893 59.488C95.5964 63.8284 94.7423 68.1271 93.0763 72.135C91.5593 75.7852 89.3857 79.1261 86.6633 81.992H86.6603ZM63.5603 91.975C59.2752 91.9832 55.0338 91.1141 51.0973 89.421C47.2824 87.7844 43.8232 85.4196 40.9133 82.459C37.9848 79.4909 35.6572 75.985 34.0583 72.134C32.8036 69.132 32.0067 65.9587 31.6943 62.72L38.1693 62.148C38.4217 64.7115 39.0526 67.2235 40.0413 69.602C41.3161 72.6835 43.1753 75.4891 45.5163 77.864C47.8319 80.2298 50.5862 82.1217 53.6253 83.434C56.7627 84.7876 60.1444 85.4832 63.5613 85.478C66.6558 85.4831 69.7242 84.9131 72.6103 83.797L74.6883 89.959C71.1314 91.2982 67.361 91.9812 63.5603 91.975Z" fill="white"/>
<path d="M69.8164 80.793L75.744 94.075L79.5616 83.7742L69.8164 80.793Z" fill="white"/>
<path d="M42.8968 51.7773L28.5871 48.099L33.3378 59.3312L42.8968 51.7773Z" fill="white"/>
<path d="M81.7138 46.3184L91.9138 35.9821L80.1541 34.6939L81.7138 46.3184Z" fill="white"/>
</svg>
