<svg width="123" height="122" viewBox="0 0 123 122" fill="none" xmlns="http://www.w3.org/2000/svg">
<rect x="0.998047" width="122" height="122" rx="16" fill="#E3AF5B"/>
<path fill-rule="evenodd" clip-rule="evenodd" d="M65.614 29.9961V41.0421H77.298V52.6241C83.8901 53.8996 88.6356 59.694 88.587 66.4081C88.5923 68.9952 87.8881 71.5343 86.551 73.7491L93.593 80.9601L90.031 84.4391L83.248 77.4961C81.5149 78.8684 79.4721 79.7953 77.298 80.1961V88.4961H29.998V29.9961H65.614ZM60.634 34.9751H34.977V83.5201H72.317V80.1761C65.7938 78.8196 61.1179 73.0714 61.1179 66.4086C61.1179 59.7458 65.7938 53.9976 72.317 52.6411V46.0211H60.636L60.634 34.9751ZM66.3133 62.7569C67.7977 59.3921 71.1741 57.2635 74.85 57.3751L74.851 57.3821C79.7571 57.461 83.6738 61.4958 83.607 66.4021C83.607 70.0797 81.3768 73.39 77.9686 74.7715C74.5603 76.153 70.6547 75.3298 68.094 72.6901C65.5333 70.0505 64.829 66.1217 66.3133 62.7569ZM47.424 61.1161V71.0731H42.445V61.1161H47.424ZM47.424 56.1371V46.1801H42.445V56.1371H47.424Z" fill="white"/>
</svg>
